<mxfile host="app.diagrams.net" modified="2022-01-08T08:36:37.339Z" agent="5.0 (Windows NT 10.0; Win64; x64) AppleWebKit/537.36 (KHTML, like Gecko) Chrome/96.0.4664.110 Safari/537.36" etag="xNjd8YPDLM_1kK2KzAh5" version="16.2.4" type="github">
  <diagram id="C5RBs43oDa-KdzZeNtuy" name="Page-1">
    <mxGraphModel dx="2524" dy="909" grid="1" gridSize="10" guides="1" tooltips="1" connect="1" arrows="1" fold="1" page="1" pageScale="1" pageWidth="827" pageHeight="1169" math="0" shadow="0">
      <root>
        <mxCell id="WIyWlLk6GJQsqaUBKTNV-0" />
        <mxCell id="WIyWlLk6GJQsqaUBKTNV-1" parent="WIyWlLk6GJQsqaUBKTNV-0" />
        <mxCell id="89smG3WtZg3VRzFa8v-T-25" value="" style="rounded=0;whiteSpace=wrap;html=1;" vertex="1" parent="WIyWlLk6GJQsqaUBKTNV-1">
          <mxGeometry x="-80" y="400" width="860" height="510" as="geometry" />
        </mxCell>
        <mxCell id="89smG3WtZg3VRzFa8v-T-0" value="MarsRT" style="ellipse;whiteSpace=wrap;html=1;" vertex="1" parent="WIyWlLk6GJQsqaUBKTNV-1">
          <mxGeometry x="270" y="637.5" width="156" height="80" as="geometry" />
        </mxCell>
        <mxCell id="89smG3WtZg3VRzFa8v-T-1" value="AI交互部&lt;br&gt;优先级：内容生产 &amp;gt; 输入法/文档 &amp;gt; 内容理解/视频" style="ellipse;whiteSpace=wrap;html=1;" vertex="1" parent="WIyWlLk6GJQsqaUBKTNV-1">
          <mxGeometry x="130" y="490" width="200" height="95" as="geometry" />
        </mxCell>
        <mxCell id="89smG3WtZg3VRzFa8v-T-2" value="机平新业务&lt;br&gt;优先级：推荐 &amp;gt; 搜索 &amp;gt; cv/nlp &amp;gt; ..." style="ellipse;whiteSpace=wrap;html=1;" vertex="1" parent="WIyWlLk6GJQsqaUBKTNV-1">
          <mxGeometry x="400" y="490" width="200" height="100" as="geometry" />
        </mxCell>
        <mxCell id="89smG3WtZg3VRzFa8v-T-3" value="减法" style="text;html=1;strokeColor=none;fillColor=none;align=center;verticalAlign=middle;whiteSpace=wrap;rounded=0;" vertex="1" parent="WIyWlLk6GJQsqaUBKTNV-1">
          <mxGeometry x="200" y="460" width="60" height="30" as="geometry" />
        </mxCell>
        <mxCell id="89smG3WtZg3VRzFa8v-T-4" value="加法" style="text;html=1;strokeColor=none;fillColor=none;align=center;verticalAlign=middle;whiteSpace=wrap;rounded=0;" vertex="1" parent="WIyWlLk6GJQsqaUBKTNV-1">
          <mxGeometry x="480" y="460" width="60" height="30" as="geometry" />
        </mxCell>
        <mxCell id="89smG3WtZg3VRzFa8v-T-5" value="业务/技术方向" style="text;html=1;strokeColor=none;fillColor=none;align=center;verticalAlign=middle;whiteSpace=wrap;rounded=0;" vertex="1" parent="WIyWlLk6GJQsqaUBKTNV-1">
          <mxGeometry x="-40" y="522.5" width="80" height="30" as="geometry" />
        </mxCell>
        <mxCell id="89smG3WtZg3VRzFa8v-T-6" value="周边团队：Venus（rondaserving、triton）" style="ellipse;whiteSpace=wrap;html=1;" vertex="1" parent="WIyWlLk6GJQsqaUBKTNV-1">
          <mxGeometry x="550" y="637.5" width="156" height="80" as="geometry" />
        </mxCell>
        <mxCell id="89smG3WtZg3VRzFa8v-T-7" value="核心技术" style="text;html=1;strokeColor=none;fillColor=none;align=center;verticalAlign=middle;whiteSpace=wrap;rounded=0;" vertex="1" parent="WIyWlLk6GJQsqaUBKTNV-1">
          <mxGeometry x="-60" y="660" width="80" height="35" as="geometry" />
        </mxCell>
        <mxCell id="89smG3WtZg3VRzFa8v-T-10" value="" style="shape=flexArrow;endArrow=classic;html=1;rounded=0;exitX=0.681;exitY=0.007;exitDx=0;exitDy=0;exitPerimeter=0;" edge="1" parent="WIyWlLk6GJQsqaUBKTNV-1" source="89smG3WtZg3VRzFa8v-T-0">
          <mxGeometry width="50" height="50" relative="1" as="geometry">
            <mxPoint x="390" y="630" as="sourcePoint" />
            <mxPoint x="440" y="580" as="targetPoint" />
          </mxGeometry>
        </mxCell>
        <mxCell id="89smG3WtZg3VRzFa8v-T-11" value="" style="shape=flexArrow;endArrow=classic;html=1;rounded=0;exitX=0.267;exitY=0.036;exitDx=0;exitDy=0;exitPerimeter=0;" edge="1" parent="WIyWlLk6GJQsqaUBKTNV-1" source="89smG3WtZg3VRzFa8v-T-0" target="89smG3WtZg3VRzFa8v-T-1">
          <mxGeometry width="50" height="50" relative="1" as="geometry">
            <mxPoint x="284" y="660" as="sourcePoint" />
            <mxPoint x="334" y="610" as="targetPoint" />
          </mxGeometry>
        </mxCell>
        <mxCell id="89smG3WtZg3VRzFa8v-T-12" value="" style="endArrow=classic;html=1;rounded=0;exitX=1;exitY=0.5;exitDx=0;exitDy=0;" edge="1" parent="WIyWlLk6GJQsqaUBKTNV-1" source="89smG3WtZg3VRzFa8v-T-1">
          <mxGeometry width="50" height="50" relative="1" as="geometry">
            <mxPoint x="320" y="520" as="sourcePoint" />
            <mxPoint x="400" y="538" as="targetPoint" />
          </mxGeometry>
        </mxCell>
        <mxCell id="89smG3WtZg3VRzFa8v-T-14" value="有状态/流式" style="ellipse;whiteSpace=wrap;html=1;" vertex="1" parent="WIyWlLk6GJQsqaUBKTNV-1">
          <mxGeometry x="130" y="760" width="156" height="80" as="geometry" />
        </mxCell>
        <mxCell id="89smG3WtZg3VRzFa8v-T-15" value="无状态/非流式" style="ellipse;whiteSpace=wrap;html=1;" vertex="1" parent="WIyWlLk6GJQsqaUBKTNV-1">
          <mxGeometry x="414" y="770" width="156" height="80" as="geometry" />
        </mxCell>
        <mxCell id="89smG3WtZg3VRzFa8v-T-16" value="" style="shape=flexArrow;endArrow=classic;html=1;rounded=0;exitX=0.214;exitY=0.953;exitDx=0;exitDy=0;exitPerimeter=0;" edge="1" parent="WIyWlLk6GJQsqaUBKTNV-1" source="89smG3WtZg3VRzFa8v-T-0" target="89smG3WtZg3VRzFa8v-T-14">
          <mxGeometry width="50" height="50" relative="1" as="geometry">
            <mxPoint x="332.362" y="788.44" as="sourcePoint" />
            <mxPoint x="286.00322599852683" y="730.0033216277748" as="targetPoint" />
          </mxGeometry>
        </mxCell>
        <mxCell id="89smG3WtZg3VRzFa8v-T-17" value="" style="shape=flexArrow;endArrow=classic;html=1;rounded=0;entryX=0.322;entryY=0.043;entryDx=0;entryDy=0;entryPerimeter=0;exitX=1;exitY=1;exitDx=0;exitDy=0;" edge="1" parent="WIyWlLk6GJQsqaUBKTNV-1" source="89smG3WtZg3VRzFa8v-T-0" target="89smG3WtZg3VRzFa8v-T-15">
          <mxGeometry width="50" height="50" relative="1" as="geometry">
            <mxPoint x="399.9973655879753" y="706.5299182825822" as="sourcePoint" />
            <mxPoint x="338.82991805917845" y="759.9963571198589" as="targetPoint" />
          </mxGeometry>
        </mxCell>
        <mxCell id="89smG3WtZg3VRzFa8v-T-18" value="发力方向" style="text;html=1;strokeColor=none;fillColor=none;align=center;verticalAlign=middle;whiteSpace=wrap;rounded=0;" vertex="1" parent="WIyWlLk6GJQsqaUBKTNV-1">
          <mxGeometry x="580" y="795" width="60" height="30" as="geometry" />
        </mxCell>
        <mxCell id="89smG3WtZg3VRzFa8v-T-19" value="&lt;ul&gt;&lt;li&gt;自动化&lt;/li&gt;&lt;li&gt;兼容开源&lt;/li&gt;&lt;li&gt;效率&lt;/li&gt;&lt;/ul&gt;" style="text;strokeColor=none;fillColor=none;html=1;whiteSpace=wrap;verticalAlign=middle;overflow=hidden;" vertex="1" parent="WIyWlLk6GJQsqaUBKTNV-1">
          <mxGeometry x="610" y="770" width="100" height="80" as="geometry" />
        </mxCell>
        <mxCell id="89smG3WtZg3VRzFa8v-T-21" value="" style="endArrow=none;dashed=1;html=1;rounded=0;exitX=1;exitY=0.5;exitDx=0;exitDy=0;entryX=0.009;entryY=0.361;entryDx=0;entryDy=0;entryPerimeter=0;" edge="1" parent="WIyWlLk6GJQsqaUBKTNV-1" source="89smG3WtZg3VRzFa8v-T-14" target="89smG3WtZg3VRzFa8v-T-15">
          <mxGeometry width="50" height="50" relative="1" as="geometry">
            <mxPoint x="390" y="780" as="sourcePoint" />
            <mxPoint x="440" y="730" as="targetPoint" />
          </mxGeometry>
        </mxCell>
        <mxCell id="89smG3WtZg3VRzFa8v-T-22" value="两条腿" style="text;strokeColor=none;fillColor=none;html=1;fontSize=24;fontStyle=1;verticalAlign=middle;align=center;" vertex="1" parent="WIyWlLk6GJQsqaUBKTNV-1">
          <mxGeometry x="310" y="760" width="100" height="40" as="geometry" />
        </mxCell>
        <mxCell id="89smG3WtZg3VRzFa8v-T-27" value="" style="shape=flexArrow;endArrow=classic;startArrow=classic;html=1;rounded=0;entryX=0;entryY=0.5;entryDx=0;entryDy=0;exitX=1;exitY=0.5;exitDx=0;exitDy=0;" edge="1" parent="WIyWlLk6GJQsqaUBKTNV-1" source="89smG3WtZg3VRzFa8v-T-0" target="89smG3WtZg3VRzFa8v-T-6">
          <mxGeometry width="100" height="100" relative="1" as="geometry">
            <mxPoint x="426" y="684.5" as="sourcePoint" />
            <mxPoint x="526" y="584.5" as="targetPoint" />
          </mxGeometry>
        </mxCell>
        <mxCell id="89smG3WtZg3VRzFa8v-T-28" value="" style="shape=flexArrow;endArrow=classic;html=1;rounded=0;exitX=0.5;exitY=0;exitDx=0;exitDy=0;" edge="1" parent="WIyWlLk6GJQsqaUBKTNV-1" source="89smG3WtZg3VRzFa8v-T-25">
          <mxGeometry width="50" height="50" relative="1" as="geometry">
            <mxPoint x="390" y="580" as="sourcePoint" />
            <mxPoint x="350" y="290" as="targetPoint" />
            <Array as="points">
              <mxPoint x="350" y="320" />
            </Array>
          </mxGeometry>
        </mxCell>
        <mxCell id="89smG3WtZg3VRzFa8v-T-29" value="在机平的定位：统一的云端推理serving出口" style="text;html=1;strokeColor=none;fillColor=none;align=center;verticalAlign=middle;whiteSpace=wrap;rounded=0;" vertex="1" parent="WIyWlLk6GJQsqaUBKTNV-1">
          <mxGeometry x="220" y="260" width="280" height="30" as="geometry" />
        </mxCell>
        <mxCell id="89smG3WtZg3VRzFa8v-T-32" value="" style="endArrow=none;dashed=1;html=1;rounded=0;" edge="1" parent="WIyWlLk6GJQsqaUBKTNV-1">
          <mxGeometry width="50" height="50" relative="1" as="geometry">
            <mxPoint x="-150" y="620" as="sourcePoint" />
            <mxPoint x="840" y="620" as="targetPoint" />
          </mxGeometry>
        </mxCell>
        <mxCell id="89smG3WtZg3VRzFa8v-T-33" value="&lt;font style=&quot;font-size: 14px&quot;&gt;如何推进？&lt;/font&gt;" style="text;html=1;strokeColor=none;fillColor=none;align=center;verticalAlign=middle;whiteSpace=wrap;rounded=0;" vertex="1" parent="WIyWlLk6GJQsqaUBKTNV-1">
          <mxGeometry x="800" y="717.5" width="80" height="30" as="geometry" />
        </mxCell>
        <mxCell id="89smG3WtZg3VRzFa8v-T-34" value="&lt;ol style=&quot;font-size: 14px&quot;&gt;&lt;li&gt;与人沟通：出差、会议等&lt;/li&gt;&lt;li&gt;做事：OKR共担、立项等&lt;/li&gt;&lt;/ol&gt;" style="text;strokeColor=none;fillColor=none;html=1;whiteSpace=wrap;verticalAlign=middle;overflow=hidden;" vertex="1" parent="WIyWlLk6GJQsqaUBKTNV-1">
          <mxGeometry x="850" y="695" width="210" height="80" as="geometry" />
        </mxCell>
      </root>
    </mxGraphModel>
  </diagram>
</mxfile>
